<svg xmlns="http://www.w3.org/2000/svg" version="1.1" xmlns:xlink="http://www.w3.org/1999/xlink" xmlns:svgjs="http://svgjs.dev/svgjs" width="128" height="128" viewBox="0 0 128 128"><g transform="matrix(0.8046875,0,0,0.8046875,12.612792253521128,12.612792253521128)"><svg viewBox="0 0 142 142" data-background-color="#0a1627" preserveAspectRatio="xMidYMid meet" height="128" width="128" xmlns="http://www.w3.org/2000/svg" xmlns:xlink="http://www.w3.org/1999/xlink"><g id="tight-bounds" transform="matrix(1,0,0,1,-0.15550000000000352,-0.15550000000000352)"><svg viewBox="0 0 142.31066447748248 142.31066447748248" height="142.31066447748248" width="142.31066447748248"><g><svg></svg></g><g><svg viewBox="0 0 142.31066447748248 142.31066447748248" height="142.31066447748248" width="142.31066447748248"><g><path d="M0 71.155c0-39.298 31.857-71.155 71.155-71.155 39.298 0 71.155 31.857 71.156 71.155 0 39.298-31.857 71.155-71.156 71.156-39.298 0-71.155-31.857-71.155-71.156zM71.155 134.886c35.197 0 63.731-28.533 63.731-63.731 0-35.197-28.533-63.731-63.731-63.73-35.197 0-63.731 28.533-63.73 63.73 0 35.197 28.533 63.731 63.73 63.731z" data-fill-palette-color="tertiary" fill="#fe0039" stroke="transparent"></path><ellipse rx="68.30911894919159" ry="68.30911894919159" cx="71.15533223874124" cy="71.15533223874124" fill="#fe0039" stroke="transparent" stroke-width="0" fill-opacity="1" data-fill-palette-color="tertiary"></ellipse></g><g transform="matrix(1,0,0,1,44.95309176441522,29.989108276746514)"><svg viewBox="0 0 52.404480948652036 82.33244792398945" height="82.33244792398945" width="52.404480948652036"><g><svg viewBox="0 0 52.404480948652036 82.33244792398945" height="82.33244792398945" width="52.404480948652036"><g><svg viewBox="0 0 52.404480948652036 82.33244792398945" height="82.33244792398945" width="52.404480948652036"><g id="textblocktransform"><svg viewBox="0 0 52.404480948652036 82.33244792398945" height="82.33244792398945" width="52.404480948652036" id="textblock"><g><svg viewBox="0 0 52.404480948652036 82.33244792398945" height="82.33244792398945" width="52.404480948652036"><g transform="matrix(1,0,0,1,0,0)"><svg width="52.404480948652036" viewBox="3.85 -33.7 21.45 33.7" height="82.33244792398945" data-palette-color="#0a1627"><path d="M7.9-30.25L7.9-15.85 13.1-15.85Q16.9-15.85 19.05-17.82 21.2-19.8 21.2-22.85L21.2-22.85Q21.2-26.25 19-28.25 16.8-30.25 12.75-30.25L12.75-30.25 7.9-30.25ZM3.85 0L3.85-33.7 12.7-33.7Q18.55-33.7 21.93-30.68 25.3-27.65 25.3-22.85L25.3-22.85Q25.3-18.35 21.95-15.38 18.6-12.4 13.1-12.4L13.1-12.4 7.9-12.4 7.9 0 3.85 0Z" opacity="1" transform="matrix(1,0,0,1,0,0)" fill="#0a1627" class="wordmark-text-0" data-fill-palette-color="quaternary" id="text-0"></path></svg></g></svg></g></svg></g></svg></g><g></g></svg></g></svg></g></svg></g><defs></defs></svg><rect width="142.31066447748248" height="142.31066447748248" fill="none" stroke="none" visibility="hidden"></rect></g></svg></g></svg>