<svg xmlns="http://www.w3.org/2000/svg" version="1.1" xmlns:xlink="http://www.w3.org/1999/xlink" xmlns:svgjs="http://svgjs.dev/svgjs" width="2000" height="2000" viewBox="0 0 2000 2000"><g transform="matrix(1,0,0,1,-0.28443113772425477,-0.28443113772459583)"><svg viewBox="0 0 334 334" data-background-color="#0a1627" preserveAspectRatio="xMidYMid meet" height="2000" width="2000" xmlns="http://www.w3.org/2000/svg" xmlns:xlink="http://www.w3.org/1999/xlink"><g id="tight-bounds" transform="matrix(1,0,0,1,0.04749999999998522,0.04750000000001364)"><svg viewBox="0 0 333.90454557049503 333.90454557049503" height="333.90454557049503" width="333.90454557049503"><g><svg></svg></g><g><svg viewBox="0 0 333.90454557049503 333.90454557049503" height="333.90454557049503" width="333.90454557049503"><g><path d="M0 166.952c0-92.205 74.747-166.952 166.952-166.952 92.205 0 166.952 74.747 166.953 166.952 0 92.205-74.747 166.952-166.953 166.953-92.205 0-166.952-74.747-166.952-166.953zM166.952 316.63c82.665 0 149.677-67.013 149.678-149.678 0-82.665-67.013-149.677-149.678-149.677-82.665 0-149.677 67.013-149.677 149.677 0 82.665 67.013 149.677 149.677 149.678z" data-fill-palette-color="tertiary" fill="#fe0039" stroke="transparent"></path><ellipse rx="160.27418187383762" ry="160.27418187383762" cx="166.95227278524752" cy="166.95227278524752" fill="#fe0039" stroke="transparent" stroke-width="0" fill-opacity="1" data-fill-palette-color="tertiary"></ellipse></g><g transform="matrix(1,0,0,1,105.98894097037333,71.17305217166896)"><svg viewBox="0 0 121.92666362974838 191.55844122715712" height="191.55844122715712" width="121.92666362974838"><g><svg viewBox="0 0 121.92666362974838 191.55844122715712" height="191.55844122715712" width="121.92666362974838"><g><svg viewBox="0 0 121.92666362974838 191.55844122715712" height="191.55844122715712" width="121.92666362974838"><g id="textblocktransform"><svg viewBox="0 0 121.92666362974838 191.55844122715712" height="191.55844122715712" width="121.92666362974838" id="textblock"><g><svg viewBox="0 0 121.92666362974838 191.55844122715712" height="191.55844122715712" width="121.92666362974838"><g transform="matrix(1,0,0,1,0,0)"><svg width="121.92666362974838" viewBox="3.85 -33.7 21.45 33.7" height="191.55844122715712" data-palette-color="#0a1627"><path d="M7.9-30.25L7.9-15.85 13.1-15.85Q16.9-15.85 19.05-17.82 21.2-19.8 21.2-22.85L21.2-22.85Q21.2-26.25 19-28.25 16.8-30.25 12.75-30.25L12.75-30.25 7.9-30.25ZM3.85 0L3.85-33.7 12.7-33.7Q18.55-33.7 21.93-30.68 25.3-27.65 25.3-22.85L25.3-22.85Q25.3-18.35 21.95-15.38 18.6-12.4 13.1-12.4L13.1-12.4 7.9-12.4 7.9 0 3.85 0Z" opacity="1" transform="matrix(1,0,0,1,0,0)" fill="#0a1627" class="wordmark-text-0" data-fill-palette-color="quaternary" id="text-0"></path></svg></g></svg></g></svg></g></svg></g><g></g></svg></g></svg></g></svg></g><defs></defs></svg><rect width="333.90454557049503" height="333.90454557049503" fill="none" stroke="none" visibility="hidden"></rect></g></svg></g></svg>